<svg width="40" height="40" viewBox="0 0 40 40" fill="none" xmlns="http://www.w3.org/2000/svg">
<circle cx="20" cy="20" r="20" fill="#CECECE" fill-opacity="0.55"/>
<path d="M20 17.52C19.5095 17.52 19.03 17.6654 18.6222 17.938C18.2144 18.2105 17.8965 18.5978 17.7088 19.0509C17.5211 19.5041 17.472 20.0028 17.5677 20.4838C17.6633 20.9649 17.8995 21.4068 18.2464 21.7536C18.5932 22.1005 19.0351 22.3367 19.5162 22.4323C19.9972 22.528 20.4959 22.4789 20.9491 22.2912C21.4022 22.1035 21.7895 21.7856 22.062 21.3778C22.3346 20.97 22.48 20.4905 22.48 20C22.48 19.6743 22.4159 19.3518 22.2912 19.0509C22.1666 18.7501 21.9839 18.4767 21.7536 18.2464C21.5233 18.0161 21.2499 17.8334 20.9491 17.7088C20.6482 17.5841 20.3257 17.52 20 17.52ZM29.93 15.07C29.9247 14.2978 29.7825 13.5326 29.51 12.81C29.3093 12.2813 28.9987 11.8011 28.5988 11.4012C28.1989 11.0013 27.7187 10.6907 27.19 10.49C26.4674 10.2175 25.7022 10.0753 24.93 10.07C23.64 10 23.26 10 20 10C16.74 10 16.36 10 15.07 10.07C14.2978 10.0753 13.5326 10.2175 12.81 10.49C12.2813 10.6907 11.8011 11.0013 11.4012 11.4012C11.0013 11.8011 10.6907 12.2813 10.49 12.81C10.2175 13.5326 10.0753 14.2978 10.07 15.07C10 16.36 10 16.74 10 20C10 23.26 10 23.64 10.07 24.93C10.0808 25.705 10.2228 26.4725 10.49 27.2C10.6898 27.7263 11.0001 28.2037 11.4 28.6C11.7982 29.0023 12.2794 29.3129 12.81 29.51C13.5326 29.7825 14.2978 29.9247 15.07 29.93C16.36 30 16.74 30 20 30C23.26 30 23.64 30 24.93 29.93C25.7022 29.9247 26.4674 29.7825 27.19 29.51C27.7206 29.3129 28.2018 29.0023 28.6 28.6C28.9999 28.2037 29.3102 27.7263 29.51 27.2C29.7823 26.4739 29.9244 25.7055 29.93 24.93C30 23.64 30 23.26 30 20C30 16.74 30 16.36 29.93 15.07ZM27.39 23.07C27.3579 23.6871 27.2262 24.295 27 24.87C26.8059 25.3497 26.5173 25.7854 26.1514 26.1514C25.7854 26.5173 25.3497 26.8059 24.87 27C24.2895 27.2136 23.6783 27.3318 23.06 27.35C22.27 27.35 22.06 27.35 20 27.35C17.94 27.35 17.73 27.35 16.94 27.35C16.3217 27.3318 15.7105 27.2136 15.13 27C14.6341 26.8157 14.1863 26.5217 13.82 26.14C13.4577 25.7813 13.1778 25.3479 13 24.87C12.7856 24.2901 12.6706 23.6782 12.66 23.06C12.66 22.27 12.66 22.06 12.66 20C12.66 17.94 12.66 17.73 12.66 16.94C12.6706 16.3218 12.7856 15.7099 13 15.13C13.1843 14.6341 13.4783 14.1863 13.86 13.82C14.2203 13.4596 14.6533 13.1801 15.13 13C15.7105 12.7864 16.3217 12.6682 16.94 12.65C17.73 12.65 17.94 12.65 20 12.65C22.06 12.65 22.27 12.65 23.06 12.65C23.6783 12.6682 24.2895 12.7864 24.87 13C25.3659 13.1843 25.8137 13.4783 26.18 13.86C26.5423 14.2187 26.8222 14.6521 27 15.13C27.2136 15.7105 27.3318 16.3217 27.35 16.94C27.35 17.73 27.35 17.94 27.35 20C27.35 22.06 27.42 22.27 27.39 23.06V23.07ZM25.79 15.63C25.6709 15.307 25.4832 15.0136 25.2398 14.7702C24.9964 14.5268 24.703 14.3391 24.38 14.22C23.9365 14.0663 23.4693 13.9918 23 14C22.22 14 22 14 20 14C18 14 17.78 14 17 14C16.5283 14.0046 16.0611 14.0926 15.62 14.26C15.3019 14.3737 15.0117 14.5537 14.7686 14.7882C14.5255 15.0227 14.3351 15.3062 14.21 15.62C14.0648 16.0654 13.9938 16.5316 14 17C14 17.78 14 18 14 20C14 22 14 22.22 14 23C14.0099 23.4712 14.0978 23.9375 14.26 24.38C14.3791 24.703 14.5668 24.9964 14.8102 25.2398C15.0536 25.4832 15.347 25.6709 15.67 25.79C16.0967 25.9469 16.5457 26.0347 17 26.05C17.78 26.05 18 26.05 20 26.05C22 26.05 22.22 26.05 23 26.05C23.4717 26.0454 23.9389 25.9574 24.38 25.79C24.703 25.6709 24.9964 25.4832 25.2398 25.2398C25.4832 24.9964 25.6709 24.703 25.79 24.38C25.9574 23.9389 26.0454 23.4717 26.05 23C26.05 22.22 26.05 22 26.05 20C26.05 18 26.05 17.78 26.05 17C26.0503 16.5278 25.9621 16.0597 25.79 15.62V15.63ZM20 23.82C19.4988 23.82 19.0026 23.7211 18.5397 23.529C18.0768 23.3369 17.6563 23.0554 17.3024 22.7005C16.9485 22.3457 16.668 21.9245 16.4771 21.4611C16.2863 20.9977 16.1887 20.5012 16.19 20C16.19 19.2441 16.4143 18.5051 16.8345 17.8767C17.2547 17.2483 17.8519 16.7587 18.5505 16.4698C19.2491 16.181 20.0177 16.1059 20.7589 16.2541C21.5002 16.4024 22.1808 16.7672 22.7147 17.3024C23.2485 17.8376 23.6116 18.5192 23.7578 19.2609C23.9041 20.0026 23.827 20.771 23.5363 21.4688C23.2457 22.1666 22.7545 22.7625 22.125 23.1811C21.4955 23.5996 20.7559 23.822 20 23.82ZM24 16.93C23.7789 16.9066 23.5744 16.8022 23.4257 16.637C23.277 16.4717 23.1947 16.2573 23.1947 16.035C23.1947 15.8127 23.277 15.5983 23.4257 15.433C23.5744 15.2678 23.7789 15.1634 24 15.14C24.2211 15.1634 24.4256 15.2678 24.5743 15.433C24.723 15.5983 24.8053 15.8127 24.8053 16.035C24.8053 16.2573 24.723 16.4717 24.5743 16.637C24.4256 16.8022 24.2211 16.9066 24 16.93Z" fill="white"/>
</svg>
