<svg width="40" height="40" viewBox="0 0 40 40" fill="none" xmlns="http://www.w3.org/2000/svg">
<circle cx="20" cy="20" r="20" fill="#CECECE" fill-opacity="0.55"/>
<path d="M20.1501 10.0064C18.83 9.95913 17.5139 10.1755 16.281 10.6423C15.048 11.1092 13.9236 11.8169 12.9755 12.723C12.0273 13.629 11.275 14.7146 10.7638 15.9145C10.2526 17.1144 9.99303 18.4038 10.0007 19.7051C9.98373 21.0561 10.2592 22.3952 10.8087 23.6331C11.3582 24.871 12.1692 25.9793 13.1876 26.8842C13.2685 26.9552 13.3343 27.0411 13.3813 27.1372C13.4284 27.2333 13.4557 27.3376 13.4617 27.4441V29.2239C13.4672 29.3551 13.5051 29.483 13.572 29.5966C13.6389 29.7102 13.7328 29.806 13.8457 29.8759C13.9585 29.9457 14.0869 29.9875 14.2198 29.9976C14.3527 30.0077 14.4861 29.9858 14.6085 29.9338L16.6384 29.0639C16.8117 28.9994 17.003 28.9994 17.1763 29.0639C18.1359 29.3191 19.1257 29.4469 20.1196 29.4439C22.736 29.4479 25.2469 28.4277 27.0998 26.6079C28.9527 24.7881 29.996 22.3177 30 19.7401C30.004 17.1625 28.9685 14.689 27.1213 12.8635C25.2741 11.0381 22.7665 10.0103 20.1501 10.0064ZM26.2397 17.4654L23.2659 22.1248C23.1538 22.3002 23.0059 22.4508 22.8317 22.5671C22.6575 22.6834 22.4607 22.7629 22.2537 22.8005C22.0468 22.838 21.8341 22.8329 21.6293 22.7855C21.4244 22.738 21.2318 22.6493 21.0635 22.5248L18.6886 20.775C18.5832 20.6971 18.4549 20.655 18.3232 20.655C18.1914 20.655 18.0632 20.6971 17.9578 20.775L14.7506 23.1747C14.6613 23.2425 14.5505 23.277 14.4378 23.272C14.3251 23.267 14.2179 23.2228 14.1351 23.1473C14.0524 23.0718 13.9995 22.9698 13.9858 22.8595C13.9721 22.7492 13.9986 22.6377 14.0605 22.5448L17.0342 17.8854C17.1464 17.7099 17.2942 17.5593 17.4685 17.443C17.6427 17.3267 17.8395 17.2473 18.0464 17.2097C18.2534 17.1721 18.466 17.1772 18.6709 17.2247C18.8757 17.2721 19.0684 17.3609 19.2366 17.4854L21.6116 19.2352C21.717 19.3131 21.8452 19.3552 21.9769 19.3552C22.1087 19.3552 22.2369 19.3131 22.3423 19.2352L25.5495 16.8355C25.6388 16.7676 25.7497 16.7331 25.8624 16.7382C25.975 16.7432 26.0823 16.7874 26.165 16.8629C26.2478 16.9384 26.3007 17.0404 26.3143 17.1507C26.328 17.261 26.3015 17.3725 26.2397 17.4654Z" fill="white"/>
</svg>
