<svg width="40" height="40" viewBox="0 0 40 40" fill="none" xmlns="http://www.w3.org/2000/svg">
<circle cx="20" cy="20" r="20" fill="#CECECE" fill-opacity="0.55"/>
<path d="M28.3334 14.8334C27.707 15.1051 27.0445 15.2848 26.3667 15.3667C27.0818 14.9395 27.6177 14.2674 27.875 13.4751C27.203 13.8751 26.4673 14.157 25.7 14.3084C25.1871 13.7522 24.5042 13.382 23.7582 13.2558C23.0122 13.1296 22.2455 13.2545 21.5782 13.611C20.9109 13.9676 20.3808 14.5355 20.0711 15.2257C19.7613 15.916 19.6894 16.6895 19.8667 17.4251C18.5079 17.3563 17.1787 17.0025 15.9656 16.3866C14.7524 15.7707 13.6824 14.9065 12.825 13.8501C12.5243 14.3752 12.3663 14.9699 12.3667 15.5751C12.3656 16.137 12.5035 16.6906 12.7681 17.1864C13.0328 17.6821 13.4159 18.1048 13.8834 18.4167C13.34 18.4019 12.8083 18.2561 12.3334 17.9917V18.0334C12.3374 18.8208 12.6133 19.5826 13.1144 20.19C13.6155 20.7974 14.3111 21.2131 15.0834 21.3667C14.7861 21.4572 14.4774 21.5049 14.1667 21.5084C13.9516 21.5059 13.737 21.4864 13.525 21.4501C13.7449 22.1274 14.1705 22.7193 14.7426 23.1435C15.3146 23.5677 16.0047 23.803 16.7167 23.8167C15.5144 24.7628 14.0299 25.2791 12.5 25.2834C12.2215 25.2843 11.9431 25.2676 11.6667 25.2334C13.2287 26.2419 15.049 26.7773 16.9084 26.7751C18.1914 26.7884 19.4643 26.5459 20.6526 26.0618C21.8409 25.5777 22.9209 24.8616 23.8294 23.9555C24.7378 23.0493 25.4567 21.9712 25.9438 20.7841C26.431 19.5971 26.6767 18.3248 26.6667 17.0417C26.6667 16.9001 26.6667 16.7501 26.6667 16.6001C27.3206 16.1124 27.8846 15.5146 28.3334 14.8334Z" fill="white"/>
</svg>
